<?xml version="1.0" encoding="UTF-8" standalone="no"?>
<svg
   width="16"
   height="16"
   fill="currentColor"
   class="bi bi-fork-knife"
   viewBox="0 0 16 16"
   version="1.1"
   id="svg1"
   sodipodi:docname="fork-knife.svg"
   inkscape:version="1.3.1 (91b66b0, 2023-11-16)"
   xmlns:inkscape="http://www.inkscape.org/namespaces/inkscape"
   xmlns:sodipodi="http://sodipodi.sourceforge.net/DTD/sodipodi-0.dtd"
   xmlns="http://www.w3.org/2000/svg"
   xmlns:svg="http://www.w3.org/2000/svg">
  <defs
     id="defs1" />
  <sodipodi:namedview
     id="namedview1"
     pagecolor="#ffffff"
     bordercolor="#666666"
     borderopacity="1.0"
     inkscape:showpageshadow="2"
     inkscape:pageopacity="0.0"
     inkscape:pagecheckerboard="0"
     inkscape:deskcolor="#d1d1d1"
     inkscape:zoom="37.163858"
     inkscape:cx="9.6868307"
     inkscape:cy="8.1396286"
     inkscape:window-width="1440"
     inkscape:window-height="900"
     inkscape:window-x="0"
     inkscape:window-y="0"
     inkscape:window-maximized="0"
     inkscape:current-layer="svg1" />
  <path
     d="M13 .5c0-.276-.226-.506-.498-.465-1.703.257-2.94 2.012-3 8.462a.5.5 0 0 0 .498.5c.56.01 1 .13 1 1.003v5.5a.5.5 0 0 0 .5.5h1a.5.5 0 0 0 .5-.5zM4.25 0a.25.25 0 0 1 .25.25v5.122a.128.128 0 0 0 .256.006l.233-5.14A.25.25 0 0 1 5.24 0h.522a.25.25 0 0 1 .25.238l.233 5.14a.128.128 0 0 0 .256-.006V.25A.25.25 0 0 1 6.75 0h.29a.5.5 0 0 1 .498.458l.423 5.07a1.69 1.69 0 0 1-1.059 1.711l-.053.022a.92.92 0 0 0-.58.884L6.47 15a.971.971 0 1 1-1.942 0l.202-6.855a.92.92 0 0 0-.58-.884l-.053-.022a1.69 1.69 0 0 1-1.059-1.712L3.462.458A.5.5 0 0 1 3.96 0z"
     id="path1" />
  <path
     style="fill:#ec407a;fill-opacity:1;stroke:#000000;stroke-width:0.179386"
     d="M 5.3472985,15.938131 C 4.9681871,15.879701 4.650589,15.575409 4.5633185,15.186996 4.546362,15.111528 4.5725539,13.916855 4.6430999,11.547977 4.7593152,7.6455601 4.7626669,7.8739923 4.585134,7.5973313 4.4784364,7.4310574 4.3588508,7.3412981 4.0380689,7.1867114 3.9038358,7.1220235 3.7298737,7.0152566 3.6514865,6.9494516 3.2816883,6.6390107 3.0538829,6.1594792 3.0541649,5.6920867 3.0543565,5.374448 3.476592,0.41328371 3.5111269,0.32289436 3.5916503,0.11213764 3.7766804,0.01489444 4.098792,0.01404488 c 0.212131,-5.5949e-4 0.2282472,0.0035965 0.3027135,0.0780628 l 0.078654,0.07865376 V 2.784663 c 0,1.7503713 0.0092,2.6310958 0.027855,2.6659482 0.041722,0.077958 0.2071152,0.07212 0.2406688,-0.0085 0.013859,-0.033298 0.075886,-1.2169081 0.1378372,-2.6302436 0.079815,-1.82089008 0.1228913,-2.5952339 0.1478238,-2.65732265 0.047557,-0.1184299 0.122864,-0.14109512 0.4688,-0.14109512 0.3109296,0 0.3971776,0.02198415 0.4561632,0.11627329 0.027976,0.04472 0.064964,0.68098643 0.1559222,2.68214448 0.071136,1.5650552 0.130361,2.6370866 0.1467961,2.6571515 0.044462,0.05428 0.2030136,0.041873 0.2352772,-0.018412 C 6.515939,5.4157851 6.525441,4.53197 6.526013,2.7800017 6.5266719,0.76401408 6.534413,0.15161863 6.559648,0.11874952 6.620307,0.03974362 6.7088941,0.01344983 6.9144169,0.01344983 c 0.3073384,0 0.4718937,0.08503468 0.56262,0.29073645 0.033302,0.0755042 0.095631,0.72203622 0.2590455,2.68704102 0.1183556,1.4231876 0.2149817,2.64615 0.2147247,2.7176942 -0.00146,0.4050665 -0.1780656,0.8064018 -0.496733,1.128797 -0.18962,0.1918383 -0.2541343,0.2370599 -0.5307377,0.3720225 -0.3505158,0.1710267 -0.468161,0.2760806 -0.5781066,0.5162335 -0.036364,0.079429 -0.072136,0.2080212 -0.079495,0.2857618 -0.00736,0.07774 0.029838,1.578196 0.082659,3.3343457 0.052821,1.75615 0.096039,3.338886 0.096039,3.517194 0,0.425876 -0.048896,0.565563 -0.2797635,0.799228 -0.2330831,0.235907 -0.4972046,0.324972 -0.8173708,0.275627 z"
     id="path2" />
  <path
     style="fill:#ec407a;fill-opacity:1;stroke:#000000;stroke-width:0.179386"
     d="m 11.391246,15.970498 c -0.123004,-0.03716 -0.224468,-0.10981 -0.292982,-0.209781 l -0.06604,-0.09636 -0.01391,-3.002217 C 11.005647,9.9292568 11.000292,9.6478224 10.958622,9.5250413 10.881133,9.2967165 10.715997,9.1188593 10.522069,9.054857 10.475649,9.039537 10.296326,9.010677 10.123574,8.9907238 9.7570916,8.9483939 9.6510384,8.8902347 9.5582544,8.6807045 9.504249,8.5587463 9.5038755,8.5407261 9.5356122,7.5884912 9.5533603,7.055976 9.5858626,6.3778979 9.6078396,6.0816509 9.8910824,2.2635736 10.741753,0.4119748 12.366226,0.07765218 l 0.23078,-0.04749539 0.131453,0.0656452 c 0.09823,0.04905586 0.147012,0.09561445 0.193019,0.18423578 l 0.06157,0.11859057 V 7.9967317 c 0,6.3206833 -0.0061,7.6127313 -0.03635,7.6851103 -0.04805,0.115005 -0.206421,0.251235 -0.332894,0.286357 -0.117601,0.03266 -1.115843,0.03453 -1.22255,0.0023 z"
     id="path3" />
</svg>
